<svg width="24" height="24" viewBox="0 0 24 24" fill="none" xmlns="http://www.w3.org/2000/svg">
  <rect x="22" y="1.99998" width="2" height="20" rx="0.5" transform="rotate(90 22 1.99998)"
    fill="black" />
  <rect x="18" y="4.99998" width="2" height="16" rx="0.5" transform="rotate(90 18 4.99998)"
    fill="black" />
  <path fill-rule="evenodd" clip-rule="evenodd"
    d="M12 20C14.7614 20 17 17.7614 17 15C17 12.2386 14.7614 10 12 10C9.23858 10 7 12.2386 7 15C7 17.7614 9.23858 20 12 20ZM12 22C15.866 22 19 18.866 19 15C19 11.134 15.866 8 12 8C8.13401 8 5 11.134 5 15C5 18.866 8.13401 22 12 22Z"
    fill="black" />
  <path fill-rule="evenodd" clip-rule="evenodd"
    d="M16 15.5C16 15.7761 15.7761 16 15.5 16H8.5C8.22386 16 8 15.7761 8 15.5V14.5C8 14.2239 8.22386 14 8.5 14H15.5C15.7761 14 16 14.2239 16 14.5V15.5Z"
    fill="black" />
  <path fill-rule="evenodd" clip-rule="evenodd"
    d="M12.5 11C12.7761 11 13 11.2239 13 11.5V18.5C13 18.7761 12.7761 19 12.5 19H11.5C11.2239 19 11 18.7761 11 18.5V11.5C11 11.2239 11.2239 11 11.5 11H12.5Z"
    fill="black" />
</svg>