<svg width="24" height="24" viewBox="0 0 24 24" fill="none" xmlns="http://www.w3.org/2000/svg">
  <rect x="22" y="2" width="2" height="20" rx="0.5" transform="rotate(90 22 2)" fill="black" />
  <rect x="18" y="5" width="2" height="16" rx="0.5" transform="rotate(90 18 5)" fill="black" />
  <circle cx="12" cy="15" r="6" stroke="black" stroke-width="2" />
  <path
    d="M11.3 15.56H9.76001C9.45073 15.56 9.20001 15.3092 9.20001 15C9.20001 14.6907 9.45073 14.44 9.76001 14.44H11.3C11.3773 14.44 11.44 14.3773 11.44 14.3V12.76C11.44 12.4507 11.6907 12.2 12 12.2C12.3093 12.2 12.56 12.4507 12.56 12.76V14.3C12.56 14.3773 12.6227 14.44 12.7 14.44H14.24C14.5493 14.44 14.8 14.6907 14.8 15C14.8 15.3092 14.5493 15.56 14.24 15.56H12.7C12.6227 15.56 12.56 15.6226 12.56 15.7V17.24C12.56 17.5492 12.3093 17.8 12 17.8C11.6907 17.8 11.44 17.5492 11.44 17.24V15.7C11.44 15.6226 11.3773 15.56 11.3 15.56Z"
    fill="black" />
</svg>