<svg width="24" height="24" viewBox="0 0 24 24" fill="none" xmlns="http://www.w3.org/2000/svg">
  <path
    d="M10.5 16.2H7.2C6.53726 16.2 6 15.6627 6 15C6 14.3373 6.53726 13.8 7.2 13.8H10.5C10.6657 13.8 10.8 13.6657 10.8 13.5V10.2C10.8 9.53726 11.3373 9 12 9C12.6627 9 13.2 9.53726 13.2 10.2V13.5C13.2 13.6657 13.3343 13.8 13.5 13.8H16.8C17.4627 13.8 18 14.3373 18 15C18 15.6627 17.4627 16.2 16.8 16.2H13.5C13.3343 16.2 13.2 16.3343 13.2 16.5V19.8C13.2 20.4627 12.6627 21 12 21C11.3373 21 10.8 20.4627 10.8 19.8V16.5C10.8 16.3343 10.6657 16.2 10.5 16.2Z"
    fill="black" />
  <rect x="22" y="2" width="2" height="20" rx="0.5" transform="rotate(90 22 2)" fill="black" />
  <rect x="18" y="5" width="2" height="16" rx="0.5" transform="rotate(90 18 5)" fill="black" />
</svg>