<svg width="24" height="24" viewBox="0 0 24 24" fill="none" xmlns="http://www.w3.org/2000/svg">
  <rect width="2" height="20" rx="0.5" transform="matrix(-4.37114e-08 -1 -1 4.37114e-08 22 4)"
    fill="black" />
  <rect width="2" height="16" rx="0.5" transform="matrix(-4.37114e-08 -1 -1 4.37114e-08 18 7)"
    fill="black" />
  <path fill-rule="evenodd" clip-rule="evenodd"
    d="M11.2929 21.6846C11.4804 21.8865 11.7348 22 12 22C12.2652 22 12.5195 21.8865 12.7071 21.6846L16.7071 17.3769C16.9931 17.0689 17.0786 16.6057 16.9239 16.2033C16.7691 15.8008 16.4044 15.5385 16 15.5385H13L13 8.53846C13 8.24108 12.7761 8 12.5 8H11.5C11.2238 8 11 8.24108 11 8.53846L11 15.5385H7.99997C7.59551 15.5385 7.23087 15.8008 7.07609 16.2033C6.92131 16.6057 7.00687 17.0689 7.29286 17.3769L11.2929 21.6846ZM10.4142 17.6923L12 19.4001L13.5858 17.6923H10.4142Z"
    fill="black" />
</svg>