<svg width="24" height="24" viewBox="0 0 24 24" fill="none" xmlns="http://www.w3.org/2000/svg">
  <rect width="2" height="20" rx="0.5" transform="matrix(-4.37114e-08 -1 -1 4.37114e-08 22 4)"
    fill="black" />
  <rect width="2" height="16" rx="0.5" transform="matrix(-4.37114e-08 -1 -1 4.37114e-08 18 7)"
    fill="black" />
  <path fill-rule="evenodd" clip-rule="evenodd"
    d="M11.2929 21.7071C11.4804 21.8946 11.7348 22 12 22C12.2652 22 12.5196 21.8946 12.7071 21.7071L16.7071 17.7071C16.9931 17.4211 17.0787 16.991 16.9239 16.6173C16.7691 16.2436 16.4045 16 16 16H13L13 9.5C13 9.22386 12.7761 9 12.5 9H11.5C11.2239 9 11 9.22386 11 9.5L11 16H8C7.59554 16 7.2309 16.2436 7.07612 16.6173C6.92134 16.991 7.0069 17.4211 7.29289 17.7071L11.2929 21.7071ZM10.4142 18L12 19.5858L13.5858 18H10.4142Z"
    fill="black" />
</svg>