<svg width="24" height="24" viewBox="0 0 24 24" fill="none" xmlns="http://www.w3.org/2000/svg">
  <rect width="2" height="20" rx="0.5" transform="matrix(-4.37114e-08 -1 -1 4.37114e-08 22 4)"
    fill="black" />
  <rect width="2" height="16" rx="0.5" transform="matrix(-4.37114e-08 -1 -1 4.37114e-08 18 7)"
    fill="black" />
  <path fill-rule="evenodd" clip-rule="evenodd"
    d="M12.7071 8.31542C12.5196 8.11346 12.2652 8 12 8C11.7348 8 11.4805 8.11346 11.2929 8.31542L7.29292 12.6231C7.00692 12.9311 6.92137 13.3943 7.07615 13.7967C7.23093 14.1992 7.59557 14.4615 8.00003 14.4615H11V21.4615C11 21.7589 11.2239 22 11.5 22H12.5C12.7762 22 13 21.7589 13 21.4615V14.4615H16C16.4045 14.4615 16.7691 14.1992 16.9239 13.7967C17.0787 13.3943 16.9931 12.9311 16.7071 12.6231L12.7071 8.31542ZM13.5858 12.3077L12 10.5999L10.4142 12.3077H13.5858Z"
    fill="black" />
</svg>