<svg width="24" height="24" viewBox="0 0 24 24" fill="none" xmlns="http://www.w3.org/2000/svg">
  <rect width="2" height="20" rx="0.5" transform="matrix(-4.37114e-08 -1 -1 4.37114e-08 22 4)"
    fill="black" />
  <rect width="2" height="16" rx="0.5" transform="matrix(-4.37114e-08 -1 -1 4.37114e-08 18 7)"
    fill="black" />
  <path fill-rule="evenodd" clip-rule="evenodd"
    d="M12.7071 9.29289C12.5196 9.10536 12.2652 9 12 9C11.7348 9 11.4804 9.10536 11.2929 9.29289L7.29289 13.2929C7.00689 13.5789 6.92134 14.009 7.07612 14.3827C7.2309 14.7564 7.59554 15 8 15H11V21.5C11 21.7761 11.2239 22 11.5 22H12.5C12.7761 22 13 21.7761 13 21.5V15H16C16.4045 15 16.7691 14.7564 16.9239 14.3827C17.0787 14.009 16.9931 13.5789 16.7071 13.2929L12.7071 9.29289ZM13.5858 13L12 11.4142L10.4142 13H13.5858Z"
    fill="black" />
</svg>