<svg width="24" height="24" viewBox="0 0 24 24" fill="none" xmlns="http://www.w3.org/2000/svg">
  <rect x="18" y="5" width="2" height="16" rx="0.5" transform="rotate(90 18 5)" fill="black" />
  <rect x="22" y="2" width="2" height="20" rx="0.5" transform="rotate(90 22 2)" fill="black" />
  <path
    d="M7.625 10H10.75V9H13.25V10H16.375C16.7202 10 17 10.2239 17 10.5V12H7V10.5C7 10.2239 7.27982 10 7.625 10Z"
    fill="black" />
  <path fill-rule="evenodd" clip-rule="evenodd"
    d="M8.25 13.5C8.25 13.2239 8.52982 13 8.875 13H15.125C15.4702 13 15.75 13.2239 15.75 13.5V20.5C15.75 20.7761 15.4702 21 15.125 21H8.875C8.52982 21 8.25 20.7761 8.25 20.5V13.5ZM10.75 19V15H13.25V19H10.75Z"
    fill="black" />
  <path
    d="M11.25 17.75V16.25C11.25 16.1119 11.3619 16 11.5 16C11.6381 16 11.75 16.1119 11.75 16.25V17.75C11.75 17.8881 11.6381 18 11.5 18C11.3619 18 11.25 17.8881 11.25 17.75Z"
    fill="black" />
  <path
    d="M12.25 17.75V16.25C12.25 16.1119 12.3619 16 12.5 16C12.6381 16 12.75 16.1119 12.75 16.25V17.75C12.75 17.8881 12.6381 18 12.5 18C12.3619 18 12.25 17.8881 12.25 17.75Z"
    fill="black" />
</svg>