<svg width="24" height="24" viewBox="0 0 24 24" fill="none" xmlns="http://www.w3.org/2000/svg">
  <rect x="18" y="5" width="2" height="16" rx="0.5" transform="rotate(90 18 5)" fill="black" />
  <rect x="22" y="2" width="2" height="20" rx="0.5" transform="rotate(90 22 2)" fill="black" />
  <path
    d="M7.625 10H10.75V9H13.25V10H16.375C16.7202 10 17 10.2239 17 10.5V12H7V10.5C7 10.2239 7.27982 10 7.625 10Z"
    fill="black" />
  <path fill-rule="evenodd" clip-rule="evenodd"
    d="M8.25 13.5C8.25 13.2239 8.52982 13 8.875 13H15.125C15.4702 13 15.75 13.2239 15.75 13.5V20.5C15.75 20.7761 15.4702 21 15.125 21H8.875C8.52982 21 8.25 20.7761 8.25 20.5V13.5ZM10.75 19V15H13.25V19H10.75Z"
    fill="black" />
</svg>