<svg width="24" height="24" viewBox="0 0 24 24" fill="none" xmlns="http://www.w3.org/2000/svg">
  <rect x="18" y="5" width="2" height="16" rx="0.5" transform="rotate(90 18 5)" fill="black" />
  <rect x="22" y="2" width="2" height="20" rx="0.5" transform="rotate(90 22 2)" fill="black" />
  <path
    d="M11.25 14.5V17.5C11.25 17.7761 11.3619 18 11.5 18C11.6381 18 11.75 17.7761 11.75 17.5V14.5C11.75 14.2239 11.6381 14 11.5 14C11.3619 14 11.25 14.2239 11.25 14.5Z"
    fill="black" />
  <path
    d="M12.25 17.5V14.5C12.25 14.2239 12.3619 14 12.5 14C12.6381 14 12.75 14.2239 12.75 14.5V17.5C12.75 17.7761 12.6381 18 12.5 18C12.3619 18 12.25 17.7761 12.25 17.5Z"
    fill="black" />
  <path fill-rule="evenodd" clip-rule="evenodd"
    d="M10.75 9.25V10H7.625C7.27982 10 7 10.2239 7 10.5V11H8.25V21.25C8.25 21.6642 8.52982 22 8.875 22H15.125C15.4702 22 15.75 21.6642 15.75 21.25V11H17V10.5C17 10.2239 16.7202 10 16.375 10H13.25V9.25C13.25 9.11193 13.1381 9 13 9H11C10.8619 9 10.75 9.11193 10.75 9.25ZM10.75 12.4375V19.75H13.25V12.4375H10.75Z"
    fill="black" />
</svg>