<svg width="24" height="24" viewBox="0 0 24 24" fill="white" xmlns="http://www.w3.org/2000/svg">
  <rect x="18" y="5" width="2" height="16" rx="0.5" transform="rotate(90 18 5)" fill="black" />
  <rect x="22" y="2" width="2" height="20" rx="0.5" transform="rotate(90 22 2)" fill="black" />
  <path
    d="M10 17.5C10 17.7761 10.2239 18 10.5 18C10.7761 18 11 17.7761 11 17.5V13.5C11 13.2239 10.7761 13 10.5 13C10.2239 13 10 13.2239 10 13.5V17.5Z"
    fill="black" />
  <path
    d="M13 17.5C13 17.7761 13.2239 18 13.5 18C13.7761 18 14 17.7761 14 17.5V13.5C14 13.2239 13.7761 13 13.5 13C13.2239 13 13 13.2239 13 13.5V17.5Z"
    fill="black" />
  <path fill-rule="evenodd" clip-rule="evenodd"
    d="M13.25 9C13.1119 9 13 8.88807 13 8.75V8.25C13 8.11193 12.8881 8 12.75 8H11.25C11.1119 8 11 8.11193 11 8.25V8.75C11 8.88807 10.8881 9 10.75 9H6.25C6.11193 9 6 9.11193 6 9.25V10.75C6 10.8881 6.11193 11 6.25 11H7V21.5C7 21.7761 7.22386 22 7.5 22H16.5C16.7761 22 17 21.7761 17 21.5V11H17.75C17.8881 11 18 10.8881 18 10.75V9.25C18 9.11193 17.8881 9 17.75 9H13.25ZM9 11V20H15V11H9Z"
    fill="black" />
</svg>