<svg width="24" height="24" viewBox="0 0 24 24" fill="none" xmlns="http://www.w3.org/2000/svg">
  <path
    d="M10.4587 15.6842C10.4587 14.2632 10.5917 13.2412 10.8578 12.6184C11.1239 11.9956 11.6881 11.3158 12.5505 10.5789C13.3028 9.94737 13.8761 9.39912 14.2706 8.93421C14.6651 8.4693 14.8624 7.9386 14.8624 7.34211C14.8624 6.62281 14.6101 6.02632 14.1055 5.55263C13.6009 5.07895 12.8991 4.84211 12 4.84211C11.0642 4.84211 10.3532 5.11404 9.86697 5.6579C9.38073 6.20175 9.0367 6.75439 8.83486 7.31579L6 6.15789C6.38532 5.03509 7.09174 4.0614 8.11927 3.23684C9.14679 2.41228 10.4404 2 12 2C13.9266 2 15.4083 2.51316 16.445 3.53947C17.4817 4.56579 18 5.79825 18 7.23684C18 8.11404 17.8028 8.86404 17.4083 9.48684C17.0138 10.1096 16.3945 10.8158 15.5505 11.6053C14.6514 12.4298 14.1055 13.057 13.9128 13.4868C13.7202 13.9167 13.6239 14.6491 13.6239 15.6842H10.4587ZM12 22C11.3945 22 10.8761 21.7939 10.445 21.3816C10.0138 20.9693 9.79817 20.4737 9.79817 19.8947C9.79817 19.3158 10.0138 18.8202 10.445 18.4079C10.8761 17.9956 11.3945 17.7895 12 17.7895C12.6055 17.7895 13.1239 17.9956 13.555 18.4079C13.9862 18.8202 14.2018 19.3158 14.2018 19.8947C14.2018 20.4737 13.9862 20.9693 13.555 21.3816C13.1239 21.7939 12.6055 22 12 22Z"
    fill="black" />
</svg>